<?xml version="1.0" standalone="no"?>
<!DOCTYPE svg PUBLIC "-//W3C//DTD SVG 20010904//EN"
 "http://www.w3.org/TR/2001/REC-SVG-20010904/DTD/svg10.dtd">
<svg version="1.0" xmlns="http://www.w3.org/2000/svg"
 width="959.000000pt" height="959.000000pt" viewBox="0 0 959.000000 959.000000"
 preserveAspectRatio="xMidYMid meet">
<metadata>
Created by potrace 1.11, written by Peter Selinger 2001-2013
</metadata>
<g transform="translate(0.000000,959.000000) scale(0.100000,-0.100000)"
fill="#000000" stroke="none">
<path d="M672 9580 c372 -3 679 -8 683 -12 4 -4 -5 -10 -21 -14 -16 -4 -37
-16 -48 -26 -26 -24 -57 -32 -99 -25 -133 22 -209 29 -218 20 -6 -6 -11 -24
-11 -40 -1 -31 15 -52 68 -90 29 -21 45 -45 142 -227 24 -45 50 -88 58 -97 20
-22 18 -35 -10 -56 -13 -10 -31 -34 -41 -53 -10 -19 -28 -42 -40 -51 -19 -16
-50 -69 -77 -134 -4 -11 -18 -54 -29 -95 -12 -41 -29 -104 -39 -140 -22 -75
-26 -205 -7 -235 6 -12 21 -36 32 -54 45 -76 72 -98 135 -111 40 -8 64 -9 72
-3 7 6 27 13 45 16 17 3 43 18 57 31 29 30 56 25 56 -11 0 -30 42 -73 71 -73
11 0 35 11 53 25 40 33 44 36 61 60 14 19 16 19 26 2 6 -10 24 -32 41 -49 25
-26 35 -30 65 -25 37 6 73 32 73 52 0 7 11 28 23 47 30 44 67 152 67 195 0 18
3 33 6 33 24 0 144 -111 144 -133 0 -14 18 -40 68 -97 17 -21 32 -43 32 -49 0
-6 4 -11 9 -11 18 0 20 -89 4 -203 -12 -92 -13 -124 -4 -144 10 -21 9 -29 -6
-45 -15 -17 -18 -39 -19 -127 0 -62 -7 -131 -16 -166 -10 -38 -18 -126 -22
-238 -3 -98 -11 -198 -16 -223 -6 -24 -14 -142 -20 -262 -13 -287 -28 -427
-52 -479 -19 -41 -33 -112 -43 -223 -7 -71 -60 -325 -87 -412 -11 -38 -20 -95
-20 -130 0 -35 -6 -81 -13 -103 -7 -22 -23 -87 -34 -145 -23 -111 -75 -340
-92 -402 -5 -20 -12 -56 -15 -80 -3 -24 -9 -56 -14 -73 -5 -16 -14 -57 -20
-90 -7 -33 -20 -78 -30 -100 -26 -58 -44 -128 -79 -320 -46 -247 -51 -317 -40
-506 12 -188 13 -334 3 -350 -4 -7 -8 -64 -10 -128 -1 -64 -3 -121 -3 -128 -1
-7 -13 -18 -28 -25 -15 -7 -34 -25 -43 -40 -13 -25 -13 -32 3 -78 21 -59 13
-82 -32 -98 -67 -23 -67 -106 -2 -177 23 -25 41 -51 41 -59 0 -8 -16 -22 -35
-31 -45 -22 -55 -35 -61 -81 -8 -63 3 -97 61 -184 39 -59 55 -92 55 -116 0
-23 6 -37 20 -44 23 -12 27 -40 6 -40 -8 0 -21 -7 -29 -15 -25 -24 8 -138 58
-197 20 -24 25 -40 25 -84 0 -36 4 -54 13 -54 7 0 13 -15 14 -34 2 -18 19 -78
39 -132 19 -55 42 -126 49 -159 8 -33 25 -86 39 -118 14 -32 26 -63 26 -70 0
-6 8 -34 19 -62 10 -27 24 -66 31 -85 6 -19 23 -66 36 -105 14 -38 32 -92 41
-120 8 -27 23 -61 32 -75 18 -28 57 -134 72 -195 6 -21 14 -44 19 -50 4 -5 16
-37 25 -70 10 -33 21 -64 25 -70 4 -5 11 -30 15 -55 4 -25 12 -53 17 -64 9
-16 16 -65 35 -238 5 -46 7 -48 35 -48 25 0 29 3 23 17 -4 10 -11 47 -15 83
-5 36 -15 88 -24 115 -9 28 -16 66 -16 85 -1 59 -41 196 -92 310 -11 25 -35
95 -53 155 -18 61 -39 124 -47 141 -14 27 -24 56 -78 224 -12 36 -33 90 -47
120 -23 49 -41 111 -60 205 -3 17 -11 39 -18 50 -7 11 -22 52 -34 91 -11 39
-32 88 -46 108 -27 40 -30 76 -7 84 15 5 161 -144 218 -223 15 -22 64 -75 109
-118 44 -43 100 -98 125 -123 25 -24 52 -44 61 -44 9 0 22 -7 29 -15 6 -8 37
-24 68 -35 159 -59 293 -141 332 -206 21 -33 21 -35 5 -211 -24 -272 -24 -736
0 -795 9 -22 51 -24 59 -3 3 9 0 42 -8 74 -11 47 -12 121 -5 383 4 178 13 336
18 351 6 14 11 63 12 110 l3 84 -45 55 c-35 44 -63 65 -134 102 -49 26 -103
54 -120 63 -89 47 -124 63 -138 63 -21 0 -118 75 -212 164 -44 42 -83 76 -86
76 -3 0 -31 37 -61 83 -31 45 -66 91 -78 102 -36 32 -136 187 -163 251 -13 32
-30 86 -37 119 -28 133 -72 227 -130 280 -11 10 -23 33 -26 52 -5 29 -1 43 30
88 50 72 56 112 22 169 -36 62 -34 81 14 111 l40 25 -6 58 c-3 31 -7 62 -9 69
-11 35 53 18 98 -25 l28 -26 224 2 c240 3 326 -6 570 -58 22 -5 54 -12 70 -15
17 -3 38 -8 48 -11 10 -3 17 0 17 9 0 8 -10 15 -22 15 -31 0 -110 22 -243 66
l-110 37 -255 5 c-254 5 -255 5 -308 32 -28 15 -54 34 -57 42 -3 9 -1 103 5
210 5 107 10 305 10 440 0 343 21 468 146 885 58 192 100 360 121 485 21 121
43 230 55 265 5 17 14 57 18 90 4 33 15 96 24 140 9 44 25 134 35 200 26 160
59 307 71 319 6 6 10 32 10 59 0 28 9 102 19 166 11 64 22 143 25 176 3 33 10
98 16 145 5 47 10 135 10 195 0 61 5 139 10 175 13 86 36 398 55 740 2 51 5
55 28 58 14 2 45 -7 69 -19 47 -24 202 -177 251 -249 17 -25 39 -54 49 -64 10
-11 18 -24 18 -28 0 -14 103 -118 117 -118 18 0 16 20 -5 51 -35 54 -57 84
-63 89 -3 3 -18 26 -33 53 -16 26 -51 72 -80 101 -28 30 -68 74 -88 99 -39 47
-141 122 -180 132 -13 3 -33 14 -46 23 -22 17 -23 21 -15 122 l8 105 90 6 c50
4 103 12 120 18 37 15 65 40 65 57 0 15 -68 112 -180 256 -19 24 -57 73 -84
109 -26 35 -52 66 -56 69 -4 3 -10 14 -12 25 -3 18 2 20 36 17 46 -4 191 40
238 72 45 30 67 70 50 93 -34 48 -26 71 30 87 40 12 108 69 108 90 0 8 9 16
20 19 28 7 37 53 15 77 -10 11 -23 20 -29 20 -10 1 -66 45 -66 52 0 2 21 4 46
5 39 2 55 10 109 55 64 54 105 110 105 145 0 25 -43 69 -85 88 -56 26 -130 73
-140 89 -14 23 4 48 46 63 27 9 -254 11 -1291 10 -1049 -1 -1184 -3 -648 -7z
m1820 -35 c-2 -16 -5 -31 -7 -33 -5 -5 -136 -22 -240 -32 -143 -12 -311 -66
-347 -109 -9 -12 -21 -21 -26 -21 -5 0 -15 -7 -22 -15 -16 -19 -44 -5 -62 32
-7 15 -38 46 -68 70 -67 53 -68 54 -83 75 -7 10 -37 27 -67 37 l-55 19 35 5
c19 2 240 3 490 3 l455 -1 -3 -30z m-932 -53 c19 -9 65 -46 103 -84 52 -53 67
-74 67 -97 0 -33 23 -61 50 -61 10 0 40 18 66 40 27 23 60 43 74 46 14 4 64
19 111 35 48 16 93 29 102 29 8 0 41 14 73 30 49 26 62 29 87 20 17 -5 66 -10
111 -10 128 -1 220 -16 274 -46 53 -30 62 -39 62 -72 0 -27 -88 -115 -134
-133 -17 -7 -42 -21 -55 -31 -17 -13 -33 -17 -53 -13 -34 8 -68 -2 -68 -19 0
-12 85 -51 125 -58 13 -2 24 -16 31 -38 11 -34 11 -35 -40 -72 -28 -20 -62
-45 -76 -56 -35 -27 -61 -33 -95 -23 -62 17 -76 -17 -21 -50 24 -14 35 -29 39
-52 2 -18 3 -35 1 -39 -2 -3 -28 -15 -57 -24 -65 -23 -298 -27 -304 -6 -3 6
-16 12 -31 12 l-25 0 21 -23 c13 -14 22 -36 22 -55 0 -20 9 -40 23 -54 12 -13
37 -41 55 -63 19 -22 60 -67 91 -100 75 -78 191 -235 191 -257 0 -21 -22 -34
-73 -43 -31 -6 -43 -3 -72 19 -19 15 -35 35 -35 46 0 10 -8 21 -17 24 -37 12
-94 80 -159 188 -25 42 -99 119 -120 124 -46 12 -67 -18 -108 -148 -54 -172
-56 -178 -78 -189 -41 -22 -69 9 -84 93 -3 20 -11 44 -18 53 -16 22 -45 9 -53
-24 -10 -44 -42 -100 -66 -115 -44 -28 -98 -6 -78 32 6 11 11 42 11 67 0 42
-2 46 -22 43 -14 -2 -31 -17 -43 -40 -46 -87 -267 -108 -285 -28 -4 14 -14 43
-24 65 -15 31 -17 54 -12 105 7 75 57 265 80 307 9 15 25 50 36 77 20 49 52
93 101 144 51 53 53 67 20 125 -16 29 -41 63 -55 76 -14 14 -26 32 -26 42 0 9
-7 22 -15 29 -9 7 -15 29 -15 55 0 35 -6 48 -35 76 -19 19 -35 42 -35 53 0 17
5 18 54 12 61 -7 94 2 128 36 12 12 41 27 65 33 56 14 168 7 213 -13z"/>
<path d="M6799 9581 c36 -6 41 -13 65 -73 8 -21 19 -38 25 -38 14 0 26 63 12
68 -25 8 -9 31 26 38 20 4 469 5 997 3 529 -3 1121 -2 1316 1 195 3 -282 6
-1060 6 -778 1 -1400 -1 -1381 -5z"/>
<path d="M6920 9343 c0 -5 5 -15 10 -23 8 -12 10 -11 10 8 0 12 -4 22 -10 22
-5 0 -10 -3 -10 -7z"/>
<path d="M6937 9263 c-11 -11 -8 -52 9 -109 12 -43 20 -54 36 -54 16 0 19 4
14 23 -3 12 -13 50 -22 85 -16 59 -23 70 -37 55z"/>
<path d="M7032 8998 c-20 -20 -13 -62 18 -111 34 -53 72 -66 64 -22 -4 22 -61
145 -68 145 -1 0 -7 -5 -14 -12z"/>
<path d="M7110 8778 c0 -21 13 -35 39 -43 20 -6 23 -4 18 10 -4 9 -7 19 -7 21
0 2 -7 4 -15 4 -8 0 -15 5 -15 10 0 6 -4 10 -10 10 -5 0 -10 -6 -10 -12z"/>
<path d="M7165 8593 c4 -38 17 -99 30 -138 l24 -70 -40 -40 c-59 -62 -46 -97
23 -61 23 12 29 12 45 0 10 -7 24 -14 31 -14 17 0 16 70 -2 95 -16 24 -48 129
-80 268 -4 15 -13 27 -22 27 -14 0 -15 -9 -9 -67z"/>
<path d="M8752 8465 c-14 -30 -16 -75 -3 -75 4 0 11 -27 14 -60 4 -33 14 -76
22 -96 8 -20 15 -48 15 -63 0 -14 16 -80 36 -146 19 -66 39 -149 44 -184 5
-35 14 -67 20 -71 6 -4 14 -27 17 -51 2 -24 8 -53 13 -64 15 -33 30 -98 24
-106 -4 -7 3 -40 26 -124 21 -74 59 -250 75 -344 9 -52 19 -99 22 -104 14 -24
34 -238 43 -474 6 -145 9 -266 8 -270 -5 -22 38 -376 62 -513 9 -49 18 -142
19 -193 1 -10 5 -16 10 -12 5 3 12 1 16 -5 11 -18 44 -11 57 13 25 43 8 261
-37 497 -13 65 -19 162 -30 500 -1 41 -7 120 -13 175 -6 55 -16 144 -22 198
-5 54 -16 126 -24 160 -8 34 -20 89 -26 122 -6 33 -16 76 -21 95 -5 19 -11 44
-12 55 -2 11 -8 30 -15 42 -7 12 -12 34 -12 49 0 14 -6 47 -14 73 -20 64 -46
167 -56 221 -13 69 -38 151 -54 174 -7 12 -17 50 -21 86 -4 35 -16 88 -26 118
-10 30 -16 58 -14 62 3 5 1 11 -5 15 -5 3 -10 17 -10 29 0 27 -25 116 -45 161
-7 17 -16 45 -19 64 -6 33 -31 71 -46 71 -4 0 -12 -11 -18 -25z"/>
<path d="M7270 8215 c0 -26 24 -50 40 -40 14 9 13 42 -2 52 -25 15 -38 11 -38
-12z"/>
<path d="M7007 8158 c-44 -42 -113 -188 -88 -188 10 0 27 20 102 124 27 38 49
75 49 82 0 24 -27 15 -63 -18z"/>
<path d="M7324 8063 c3 -21 6 -54 6 -73 0 -19 9 -50 20 -68 18 -29 23 -32 36
-21 12 10 15 24 10 58 -3 24 -10 49 -15 55 -4 6 -14 28 -20 49 -8 22 -19 37
-28 37 -12 0 -14 -8 -9 -37z"/>
<path d="M6861 7924 c-13 -15 -38 -59 -57 -98 -18 -40 -43 -81 -54 -91 -12
-11 -40 -56 -62 -100 -116 -232 -169 -328 -192 -350 -32 -30 -72 -155 -50
-155 5 0 20 19 34 43 14 23 31 51 38 62 7 11 18 31 24 45 7 14 33 57 59 95 44
67 119 217 119 237 0 5 6 16 13 23 31 36 37 46 37 65 0 11 9 29 19 39 18 18
91 124 111 161 10 19 4 50 -9 50 -4 0 -18 -12 -30 -26z"/>
<path d="M7378 7848 c-8 -23 17 -110 92 -319 15 -41 30 -98 34 -125 27 -174
85 -649 86 -695 0 -27 -8 -45 -29 -68 -16 -17 -33 -46 -36 -64 -4 -17 -11 -36
-15 -42 -4 -5 -32 -57 -62 -115 -150 -285 -184 -349 -215 -394 -18 -26 -33
-56 -33 -66 0 -10 -7 -23 -16 -31 -8 -7 -24 -29 -34 -48 -10 -20 -34 -52 -52
-73 -18 -20 -44 -55 -58 -77 -13 -23 -30 -41 -36 -41 -7 0 -32 -22 -56 -49
-24 -27 -54 -54 -67 -61 -14 -7 -35 -25 -48 -40 -12 -15 -34 -31 -48 -34 -14
-4 -25 -11 -25 -16 0 -6 -8 -10 -19 -10 -30 0 -46 -26 -33 -55 16 -34 48 -32
78 5 14 16 55 49 92 74 152 102 318 303 434 526 27 52 74 138 103 190 30 52
69 131 86 175 55 136 88 205 99 205 22 0 48 -87 55 -186 4 -54 11 -119 16
-143 5 -24 12 -85 14 -135 3 -50 9 -116 15 -146 5 -30 14 -93 20 -140 14 -109
37 -219 61 -294 10 -33 19 -74 19 -92 0 -18 12 -86 26 -151 15 -65 30 -140 35
-168 15 -97 86 -373 99 -390 17 -21 62 -144 85 -230 23 -85 98 -318 145 -450
12 -33 32 -89 45 -125 13 -36 32 -85 43 -110 74 -164 140 -576 126 -790 -3
-47 -6 -110 -7 -140 l-2 -55 -37 -3 -37 -3 -17 58 c-9 32 -20 63 -24 68 -4 6
-11 24 -14 41 -18 81 -80 83 -189 4 -68 -51 -144 -80 -205 -80 -15 0 -61 -9
-102 -21 -41 -11 -135 -36 -208 -55 -73 -18 -165 -50 -205 -69 -114 -56 -180
-57 -144 -2 7 12 28 65 46 117 42 127 54 265 35 410 -21 156 -45 281 -61 313
-10 20 -17 100 -24 275 -19 465 -38 617 -109 862 -32 106 -69 175 -86 157 -4
-4 43 -194 52 -208 2 -4 13 -60 24 -124 11 -64 25 -126 31 -138 7 -12 14 -78
16 -147 2 -69 8 -178 13 -243 5 -66 7 -147 4 -180 -3 -34 1 -114 8 -178 8 -65
12 -122 10 -128 -2 -6 -17 -11 -33 -11 -21 0 -32 7 -43 29 -16 30 -90 111
-102 111 -3 0 -14 8 -23 18 -9 9 -34 23 -56 31 -22 8 -43 18 -46 22 -9 16
-122 31 -184 26 -33 -3 -65 -3 -71 0 -9 3 -11 45 -8 146 4 141 4 142 -31 242
-42 120 -71 178 -116 235 -56 69 -119 91 -284 96 -170 5 -223 -25 -321 -179
-38 -60 -84 -153 -90 -182 -2 -11 -11 -49 -20 -85 -10 -40 -17 -113 -18 -190
-1 -119 0 -127 26 -170 15 -25 44 -64 65 -86 44 -48 89 -61 258 -75 115 -9
163 -18 171 -30 3 -5 -3 -6 -12 -2 -14 5 -16 1 -12 -26 4 -26 0 -36 -19 -48
-13 -9 -21 -18 -18 -21 3 -3 -1 -12 -9 -21 -7 -9 -19 -40 -26 -69 -16 -67 -5
-235 16 -253 8 -6 14 -22 14 -35 0 -29 29 -104 40 -104 5 0 12 -9 15 -21 10
-29 40 -57 70 -65 14 -3 31 -14 38 -23 20 -28 120 -97 150 -105 49 -12 267 -9
282 4 8 7 40 13 72 15 32 2 59 9 61 14 2 6 15 11 28 11 13 0 24 4 24 8 0 5 12
15 26 22 14 8 35 32 45 53 11 21 35 47 53 58 18 10 38 34 46 53 16 41 59 57
61 22 2 -33 -2 -60 -11 -71 -4 -5 -11 -30 -15 -55 -4 -25 -17 -59 -30 -75 -12
-17 -37 -61 -55 -98 -29 -58 -37 -67 -66 -73 -23 -4 -36 -14 -45 -35 -6 -16
-10 -31 -8 -33 8 -8 98 20 117 37 10 9 22 17 25 17 4 0 30 15 59 33 52 32 88
49 198 89 30 12 60 24 65 29 6 4 82 27 170 49 215 57 217 57 320 70 98 12 104
15 194 78 63 44 88 49 101 22 16 -32 40 -116 40 -138 0 -33 46 -72 85 -72 18
0 49 -7 69 -15 l36 -15 -6 -88 -6 -87 30 -27 c17 -15 44 -34 61 -43 17 -8 31
-22 31 -30 0 -27 -41 -83 -81 -109 -43 -29 -79 -79 -79 -110 0 -11 -6 -36 -12
-55 -12 -33 -22 -52 -74 -146 -30 -53 -186 -247 -277 -345 -49 -52 -96 -106
-105 -120 -27 -42 -150 -173 -205 -217 -29 -24 -82 -63 -119 -87 -36 -25 -74
-58 -84 -75 -11 -18 -39 -40 -69 -55 -45 -21 -55 -31 -75 -77 l-23 -54 18 -95
c9 -52 25 -138 35 -190 14 -77 18 -153 19 -396 0 -166 3 -309 7 -318 4 -9 17
-16 34 -16 l27 0 -2 258 c-3 272 -12 384 -46 565 -28 151 -33 197 -21 227 6
15 47 50 98 85 113 76 171 121 258 198 93 83 103 93 161 162 46 55 117 135
155 175 9 9 29 34 45 55 17 22 35 44 42 48 7 4 33 34 58 67 70 92 81 77 44
-58 -11 -43 -27 -102 -35 -132 -8 -30 -30 -104 -49 -165 -19 -60 -44 -143 -55
-182 -12 -40 -26 -75 -31 -78 -5 -4 -9 -14 -9 -23 0 -10 -9 -35 -20 -57 -11
-22 -20 -44 -20 -49 0 -6 -11 -33 -24 -61 -13 -27 -36 -90 -50 -140 -14 -49
-32 -110 -40 -135 -18 -57 -84 -271 -102 -330 -31 -105 -46 -192 -51 -308 l-6
-122 34 0 35 0 12 123 c8 87 23 162 53 262 23 77 47 163 54 190 7 28 20 66 29
86 18 42 73 242 86 310 5 26 18 65 29 88 12 22 27 64 35 93 8 29 25 78 37 108
47 118 73 191 93 270 9 36 32 124 51 197 19 72 38 140 43 150 14 26 42 126 42
148 0 10 10 37 23 59 13 23 30 68 37 101 13 57 54 128 105 185 25 27 55 82 55
100 0 17 -61 90 -75 90 -7 0 -25 10 -39 21 -20 16 -26 27 -22 43 24 84 26 117
6 156 -11 21 -25 40 -31 42 -17 6 -23 91 -10 146 33 136 0 472 -73 752 -27
103 -163 506 -188 555 -8 17 -23 62 -33 100 -10 39 -21 75 -26 80 -4 6 -33 86
-63 178 -31 92 -62 180 -71 196 -19 39 -76 263 -110 437 -15 77 -34 155 -42
174 -8 19 -21 80 -29 135 -8 54 -19 104 -24 109 -6 6 -10 30 -10 55 0 26 -5
64 -10 86 -14 55 -33 212 -44 360 -4 60 -30 247 -51 365 -8 47 -17 110 -20
140 -15 158 -25 240 -33 261 -5 13 -15 69 -22 124 -7 55 -16 113 -21 128 -5
16 -14 78 -20 139 -10 92 -17 121 -45 175 -20 37 -34 79 -34 99 0 19 -7 45
-15 57 -8 13 -19 47 -25 76 -5 29 -16 65 -23 79 -13 29 -52 42 -59 20z m-1209
-3441 c48 -23 65 -172 26 -231 -23 -35 -89 -59 -142 -51 -39 6 -44 9 -68 62
-14 30 -25 68 -25 83 0 48 41 110 90 136 46 25 69 25 119 1z m1001 -879 c0
-16 -3 -19 -11 -11 -6 6 -8 16 -5 22 11 17 16 13 16 -11z"/>
<path d="M2721 7251 c12 -31 44 -74 95 -128 47 -49 159 -193 249 -318 39 -54
98 -132 133 -174 65 -79 192 -262 192 -278 0 -4 15 -32 34 -60 19 -28 38 -64
43 -79 12 -35 40 -55 52 -35 15 23 2 54 -67 167 -18 28 -32 56 -32 61 0 5 -9
18 -20 28 -11 10 -20 23 -20 30 0 6 -19 34 -42 61 -52 62 -136 169 -163 208
-11 16 -36 53 -55 82 -108 164 -322 420 -370 443 l-39 18 10 -26z"/>
<path d="M6393 7068 c-10 -18 -13 -38 -4 -38 12 0 31 23 31 37 0 17 -16 17
-27 1z"/>
<path d="M6353 6988 c-6 -7 -18 -37 -27 -65 -10 -29 -22 -55 -27 -58 -5 -4 -9
-22 -9 -40 0 -19 -9 -50 -19 -69 -26 -45 -44 -114 -36 -135 11 -27 64 86 65
137 0 23 4 42 10 42 16 0 38 54 51 124 12 69 9 86 -8 64z"/>
<path d="M1186 6723 c-3 -21 -6 -56 -6 -79 0 -22 -7 -55 -16 -73 -8 -17 -25
-80 -36 -139 -11 -59 -24 -127 -29 -152 -5 -25 -13 -76 -17 -115 -4 -38 -11
-76 -16 -83 -8 -14 -28 -168 -27 -217 0 -16 -7 -46 -16 -65 -9 -19 -18 -59
-20 -88 -2 -29 -8 -62 -13 -72 -6 -10 -10 -35 -10 -54 0 -19 -7 -61 -15 -93
-8 -31 -15 -91 -15 -133 0 -42 -4 -80 -9 -85 -5 -6 -16 -70 -24 -143 -9 -79
-22 -143 -31 -157 -10 -15 -13 -35 -9 -59 4 -24 0 -44 -11 -61 -13 -19 -17
-60 -22 -192 -2 -93 -10 -260 -16 -373 -6 -113 -12 -333 -15 -489 -4 -317 -2
-331 57 -331 17 0 31 1 32 3 1 1 5 133 9 292 3 160 13 394 22 520 10 144 12
234 6 239 -12 13 -11 53 2 62 6 4 8 20 5 39 -6 32 0 82 44 355 12 69 25 159
30 200 4 41 13 91 19 110 6 19 11 63 11 98 0 35 6 75 14 90 7 15 21 99 31 187
10 88 21 167 26 176 5 9 11 50 13 90 3 41 10 88 15 104 13 40 30 157 42 280 4
55 13 147 19 205 6 58 14 129 17 158 3 34 1 58 -7 67 -19 23 -27 18 -34 -22z"/>
<path d="M6210 6560 c-11 -7 -12 -12 -4 -20 8 -8 13 -6 17 9 3 12 4 21 4 21
-1 0 -9 -5 -17 -10z"/>
<path d="M6147 6343 c-11 -10 -8 -63 3 -63 14 0 24 50 13 61 -5 5 -12 6 -16 2z"/>
<path d="M4640 6304 c-14 -3 -45 -12 -69 -21 -32 -11 -62 -14 -113 -10 -115
10 -223 -22 -190 -55 12 -12 23 -10 182 32 51 13 481 16 505 3 11 -6 78 -14
148 -18 71 -4 143 -11 160 -16 18 -5 90 -9 162 -9 162 0 245 -12 319 -45 32
-14 91 -32 131 -40 41 -7 87 -21 103 -29 44 -23 132 -32 132 -15 0 32 -31 59
-66 59 -19 0 -42 4 -52 9 -9 5 -73 22 -142 36 -69 15 -134 33 -146 40 -13 8
-100 19 -240 29 -120 9 -259 21 -309 27 -162 18 -466 31 -515 23z"/>
<path d="M4194 6205 c-18 -14 -18 -14 9 -15 17 0 27 5 27 15 0 19 -11 19 -36
0z"/>
<path d="M3982 6170 c-42 -10 -60 -26 -45 -41 11 -11 123 29 123 44 0 9 -34 8
-78 -3z"/>
<path d="M8217 6129 c-3 -12 4 -34 19 -56 13 -20 24 -42 24 -50 0 -8 4 -11 10
-8 11 7 2 90 -12 118 -12 23 -34 22 -41 -4z"/>
<path d="M3845 6100 c-3 -5 -1 -10 4 -10 6 0 11 5 11 10 0 6 -2 10 -4 10 -3 0
-8 -4 -11 -10z"/>
<path d="M3525 6060 c-21 -41 -20 -43 22 -35 50 9 55 13 43 34 -17 33 -49 33
-65 1z"/>
<path d="M3626 6065 c-17 -13 -18 -15 -2 -21 24 -9 109 4 143 21 27 14 25 15
-47 15 -49 -1 -81 -6 -94 -15z"/>
<path d="M2065 6021 c-12 -20 31 -71 59 -71 11 0 6 31 -7 43 -32 30 -45 38
-52 28z"/>
<path d="M3440 6000 c0 -6 7 -10 15 -10 8 0 15 2 15 4 0 2 -7 6 -15 10 -8 3
-15 1 -15 -4z"/>
<path d="M2191 5888 c46 -69 208 -173 318 -204 57 -17 118 -48 136 -71 11 -14
79 -43 145 -62 81 -23 93 -30 85 -49 -3 -9 -9 -38 -12 -64 -4 -33 -17 -61 -44
-98 -36 -47 -99 -204 -99 -247 0 -9 -11 -39 -25 -68 -18 -35 -28 -76 -31 -126
-3 -41 -10 -87 -15 -104 -8 -28 -14 -80 -40 -345 -6 -58 -9 -240 -8 -405 1
-165 3 -343 3 -395 0 -75 -5 -113 -26 -180 -41 -134 -58 -234 -58 -349 0 -103
18 -224 44 -286 30 -70 83 -168 104 -191 43 -48 83 -5 47 50 -37 56 20 89 67
39 12 -13 26 -23 32 -23 6 0 17 -9 24 -20 7 -11 23 -20 36 -20 13 0 29 -6 35
-14 7 -8 21 -12 31 -9 11 3 26 0 34 -6 19 -16 128 -19 133 -4 2 7 11 9 19 6 8
-3 14 -1 14 4 0 11 59 33 88 33 12 0 30 4 40 9 9 5 36 17 60 27 24 10 60 35
81 56 21 21 43 38 49 38 16 0 62 67 57 82 -3 8 3 23 15 33 11 10 20 23 20 28
0 6 12 26 27 45 24 32 26 42 27 139 1 84 -2 107 -15 116 -10 8 -13 20 -9 37 4
16 -4 43 -27 85 -18 33 -33 69 -33 81 0 26 30 54 58 54 12 0 45 9 74 19 29 10
64 22 78 25 56 12 120 67 153 130 64 124 68 140 58 251 -8 84 -17 119 -59 222
-39 98 -56 128 -84 151 -19 15 -46 39 -59 53 -26 28 -111 64 -172 73 -48 6
-132 -18 -177 -52 -19 -15 -48 -34 -64 -43 -21 -11 -45 -46 -88 -130 -73 -143
-77 -161 -88 -326 -5 -91 -13 -140 -22 -148 -11 -11 -114 -30 -208 -39 -35 -4
-88 -33 -103 -56 -6 -11 -17 -20 -24 -20 -19 0 -45 -47 -38 -69 3 -10 1 -22
-4 -25 -16 -10 -58 43 -71 88 -17 60 -25 740 -10 881 6 61 15 160 20 220 5 61
16 133 24 160 9 28 21 77 26 110 21 118 53 206 83 229 35 25 57 75 57 126 0
21 9 67 20 102 11 34 20 75 20 91 0 37 -32 67 -74 67 -18 0 -54 11 -80 25 -26
14 -53 25 -61 25 -14 0 -127 51 -238 106 -26 13 -79 43 -118 66 -39 24 -86 51
-105 61 -19 10 -34 23 -34 28 0 5 -9 9 -20 9 -20 0 -20 0 1 -32z m1535 -1651
c62 -56 66 -163 10 -248 -30 -44 -60 -50 -121 -25 -46 20 -67 65 -73 159 -5
90 9 121 61 136 60 17 85 13 123 -22z m-156 -337 c0 -5 -4 -10 -10 -10 -5 0
-10 5 -10 10 0 6 5 10 10 10 6 0 10 -4 10 -10z"/>
<path d="M8296 5904 c-18 -46 10 -160 36 -152 19 6 22 46 9 105 -12 52 -34 75
-45 47z"/>
<path d="M8324 5717 c-3 -8 12 -47 32 -88 24 -48 39 -94 44 -134 3 -33 19 -86
34 -119 16 -32 32 -73 37 -90 13 -50 39 -129 54 -161 7 -16 16 -68 20 -115 4
-47 13 -113 21 -146 8 -34 19 -104 25 -155 19 -162 27 -211 52 -324 14 -60 32
-144 41 -185 9 -41 23 -91 31 -110 14 -35 27 -117 31 -195 3 -62 32 -294 43
-353 13 -64 28 -415 31 -693 1 -114 3 -233 5 -265 3 -33 4 -64 5 -71 0 -14 56
-34 75 -27 7 3 17 13 21 22 5 9 9 148 10 307 1 281 -15 597 -36 702 -6 26 -14
116 -19 198 -6 83 -15 164 -22 180 -6 17 -15 57 -20 90 -12 89 -41 219 -94
425 -9 36 -23 106 -30 155 -8 50 -18 107 -23 127 -5 20 -8 39 -6 41 2 2 -5 46
-15 98 -11 52 -23 116 -27 142 -4 34 -15 58 -35 78 -24 25 -29 38 -30 82 -1
85 -14 144 -42 185 -19 27 -27 51 -27 83 0 43 -28 103 -46 99 -11 -2 -43 76
-43 106 -2 71 -78 158 -97 111z"/>
<path d="M6816 5288 c43 -84 57 -101 72 -86 13 13 -25 88 -67 130 -42 44 -44
33 -5 -44z"/>
<path d="M6921 5103 c1 -41 47 -138 70 -150 37 -19 36 5 -5 92 -34 70 -67 99
-65 58z"/>
<path d="M1209 4485 c-16 -22 -30 -58 -38 -104 -8 -41 -18 -72 -27 -75 -8 -3
-14 -12 -14 -21 0 -9 -9 -33 -19 -53 -21 -41 -50 -202 -75 -412 -9 -74 -21
-157 -27 -183 -6 -26 -11 -64 -11 -85 0 -20 -4 -45 -10 -56 -5 -10 -11 -55
-13 -100 -4 -88 -11 -187 -24 -336 -10 -103 -5 -120 35 -120 36 0 54 36 55
110 0 36 5 99 10 140 5 41 16 134 23 205 19 179 33 275 57 402 12 59 25 136
29 169 4 34 10 66 14 73 4 6 14 57 22 113 9 56 20 110 25 121 6 10 12 26 14
35 2 9 8 37 14 62 14 61 14 113 -1 132 -12 15 -16 13 -39 -17z"/>
<path d="M4762 3681 c-22 -13 -11 -55 15 -59 30 -4 63 15 63 37 0 28 -48 41
-78 22z"/>
<path d="M4770 3250 c-19 -11 -62 -31 -95 -46 -59 -26 -60 -26 -130 -11 -38 8
-74 12 -78 8 -7 -8 39 -53 77 -76 11 -7 18 -29 22 -75 8 -104 58 -275 86 -298
11 -9 41 -34 65 -54 24 -21 56 -41 71 -45 15 -3 37 -13 50 -21 15 -10 38 -13
70 -10 43 4 54 11 106 65 60 61 106 149 106 202 0 14 9 46 20 70 11 24 20 62
20 85 0 49 17 76 65 106 37 23 47 56 20 66 -8 4 -22 1 -31 -6 -26 -22 -150
-17 -228 9 -37 13 -80 30 -95 37 -36 19 -80 17 -121 -6z m272 -320 c-3 -35
-11 -62 -22 -75 -10 -11 -20 -36 -24 -57 -5 -25 -19 -48 -46 -72 -47 -42 -60
-44 -101 -14 -16 12 -44 27 -62 33 -17 5 -36 20 -42 33 -5 12 -15 22 -21 22
-18 0 -54 80 -54 121 0 37 2 39 43 49 23 6 46 12 50 13 5 1 70 2 145 2 l137 0
-3 -55z"/>
<path d="M4875 2851 c-3 -6 11 -15 32 -20 47 -13 53 -13 53 -1 0 6 -9 10 -19
10 -11 0 -23 5 -26 10 -8 13 -32 13 -40 1z"/>
<path d="M932 2410 c-15 -33 -11 -94 14 -191 8 -31 14 -81 14 -111 0 -30 4
-58 10 -64 9 -9 45 -169 60 -273 5 -29 13 -65 18 -80 6 -14 15 -53 21 -86 7
-33 16 -80 22 -105 5 -25 11 -55 13 -67 3 -12 9 -30 15 -41 5 -10 20 -47 32
-83 12 -35 25 -69 30 -74 4 -6 11 -31 15 -55 4 -25 15 -56 26 -69 10 -13 18
-32 18 -42 0 -10 13 -55 29 -101 44 -130 51 -153 51 -176 0 -34 36 -64 72 -60
50 5 55 26 28 113 -13 42 -28 78 -32 81 -4 3 -8 15 -8 27 0 12 -11 39 -25 59
-14 21 -30 61 -35 90 -6 29 -14 62 -19 73 -28 60 -88 272 -122 430 -11 55 -27
120 -35 145 -7 25 -23 92 -35 150 -11 58 -25 128 -31 155 -5 28 -14 54 -19 60
-5 5 -9 20 -9 35 0 14 -7 45 -16 70 -8 24 -18 67 -21 94 -5 43 -46 124 -63
126 -3 0 -11 -14 -18 -30z"/>
<path d="M8880 2086 c0 -14 -14 -38 -35 -59 -25 -25 -35 -44 -35 -67 0 -17
-11 -65 -25 -106 -14 -41 -25 -83 -25 -94 0 -11 -13 -60 -29 -108 -16 -48 -39
-127 -51 -177 -12 -49 -26 -98 -31 -107 -5 -10 -9 -29 -9 -43 0 -14 -6 -38
-14 -53 -8 -15 -17 -46 -21 -67 -7 -44 -34 -124 -46 -141 -5 -6 -15 -42 -24
-80 -8 -38 -26 -100 -41 -139 -37 -102 -64 -200 -64 -235 0 -16 -9 -47 -20
-67 -11 -21 -20 -48 -20 -60 0 -13 -9 -56 -20 -95 -27 -98 -27 -154 1 -169 31
-16 45 4 59 81 7 36 23 103 37 150 13 47 29 103 35 125 6 22 19 63 29 90 10
28 30 92 44 143 14 51 34 116 44 145 10 28 31 95 47 147 39 136 61 203 78 236
8 16 22 61 30 99 9 39 26 104 37 145 42 153 51 186 65 250 8 36 22 88 30 115
34 109 35 112 23 139 -16 34 -49 35 -49 2z"/>
<path d="M5440 10 c-16 -5 8 -8 70 -8 76 0 87 2 55 9 -49 10 -92 10 -125 -1z"/>
<path d="M5630 10 c-14 -4 178 -8 425 -7 383 1 417 2 230 8 -300 9 -625 9
-655 -1z"/>
</g>
</svg>
